<?xml version="1.0" standalone="no"?>
<!DOCTYPE svg PUBLIC "-//W3C//DTD SVG 20010904//EN"
 "http://www.w3.org/TR/2001/REC-SVG-20010904/DTD/svg10.dtd">
<svg version="1.0" xmlns="http://www.w3.org/2000/svg"
 width="1920.000000pt" height="1080.000000pt" viewBox="0 0 1920.000000 1080.000000"
 preserveAspectRatio="xMidYMid meet">
<metadata>
Created by potrace 1.16, written by Peter Selinger 2001-2019
</metadata>
<g transform="translate(0.000000,1080.000000) scale(0.100000,-0.100000)"
fill="#000000" stroke="none">
<path d="M9445 5680 c0 -520 1 -732 2 -472 2 259 2 685 0 945 -1 259 -2 47 -2
-473z"/>
<path d="M9725 5675 c0 -517 1 -727 2 -467 2 261 2 684 0 940 -1 257 -2 44 -2
-473z"/>
<path d="M8562 6468 c-9 -9 -11 -192 -10 -772 l3 -761 2 755 c3 696 4 756 20
768 11 8 54 12 125 12 103 0 108 -1 113 -22 3 -13 4 -356 3 -763 l-3 -740
-125 -5 -125 -6 121 -2 c82 -1 124 2 132 10 17 17 17 1509 0 1526 -8 8 -51 12
-128 12 -77 0 -120 -4 -128 -12z"/>
<path d="M10315 6458 c-3 -13 -4 -360 -3 -773 l3 -750 134 0 c101 0 135 3 137
13 1 7 0 8 -3 2 -3 -6 -56 -10 -134 -10 l-129 0 2 763 3 762 123 3 c119 3 123
2 132 -20 10 -23 10 -23 7 2 l-2 25 -132 3 c-131 3 -133 2 -138 -20z"/>
<path d="M7706 6234 c-11 -28 -7 -1144 4 -1165 10 -17 22 -19 135 -19 121 0
125 1 130 23 3 12 4 281 3 597 -3 567 -3 575 -23 576 -15 1 -16 0 -2 -3 16 -4
17 -40 17 -588 0 -522 -2 -583 -16 -589 -9 -3 -64 -6 -124 -6 -89 0 -109 3
-114 16 -3 9 -6 271 -6 583 0 428 3 570 12 579 8 8 8 12 1 12 -6 0 -14 -7 -17
-16z"/>
</g>
</svg>
