<?xml version="1.0" standalone="no"?>
<!DOCTYPE svg PUBLIC "-//W3C//DTD SVG 20010904//EN"
 "http://www.w3.org/TR/2001/REC-SVG-20010904/DTD/svg10.dtd">
<svg version="1.0" xmlns="http://www.w3.org/2000/svg"
 width="1920.000000pt" height="1080.000000pt" viewBox="0 0 1920.000000 1080.000000"
 preserveAspectRatio="xMidYMid meet">
<metadata>
Created by potrace 1.16, written by Peter Selinger 2001-2019
</metadata>
<g transform="translate(0.000000,1080.000000) scale(0.100000,-0.100000)"
fill="#fff" stroke="none">
<path d="M9510 9019 c17 -6 5 -7 -40 -4 -68 6 -170 -11 -170 -28 0 -6 -17 -7
-41 -3 -44 7 -113 -9 -104 -24 3 -5 -11 -6 -31 -3 -26 4 -35 3 -30 -5 4 -7 -3
-10 -21 -9 -17 1 -27 -3 -26 -9 1 -7 -6 -10 -17 -7 -12 3 -20 0 -20 -7 0 -7
-8 -9 -19 -5 -22 7 -73 -14 -65 -27 3 -5 -6 -6 -22 -2 -18 5 -25 3 -21 -3 4
-6 0 -14 -9 -17 -9 -4 -13 -2 -8 5 4 7 1 10 -7 7 -8 -3 -13 -10 -12 -16 1 -5
-7 -8 -19 -4 -16 4 -19 2 -13 -8 6 -10 4 -12 -9 -7 -22 9 -59 -10 -50 -25 5
-8 1 -9 -11 -4 -12 4 -22 0 -32 -13 -7 -12 -20 -18 -28 -15 -8 4 -15 1 -15 -5
0 -6 -6 -8 -14 -5 -8 3 -17 0 -22 -7 -5 -8 -3 -10 6 -4 8 5 11 4 6 -3 -4 -6
-12 -9 -19 -6 -7 2 -21 -3 -32 -12 -11 -8 -13 -12 -5 -8 9 4 12 3 7 -2 -9 -9
-13 -10 -42 -13 -9 0 -27 -12 -40 -26 -14 -13 -25 -21 -25 -17 0 3 -7 -3 -15
-15 -10 -14 -21 -20 -32 -16 -12 5 -14 3 -8 -7 5 -9 4 -11 -4 -6 -15 10 -43
-13 -34 -27 4 -6 1 -7 -7 -2 -9 5 -25 -5 -49 -31 -20 -22 -29 -31 -21 -20 9
12 -3 6 -27 -13 -24 -18 -43 -38 -43 -44 0 -5 -3 -8 -6 -4 -4 3 -16 -8 -28
-26 -12 -18 -24 -30 -27 -27 -9 8 -40 -21 -33 -31 3 -5 -1 -6 -8 -4 -7 3 -40
-22 -73 -56 -33 -34 -53 -59 -45 -55 9 5 9 2 -2 -7 -10 -8 -14 -18 -10 -22 4
-5 2 -5 -4 -2 -6 3 -24 -8 -40 -26 -17 -18 -20 -25 -9 -17 12 8 -2 -7 -30 -35
-28 -27 -43 -45 -35 -40 9 6 -1 -6 -21 -25 -20 -19 -51 -55 -70 -80 -27 -37
-29 -42 -9 -26 14 11 5 1 -19 -22 -26 -25 -41 -47 -38 -56 3 -8 -2 -20 -11
-28 -16 -12 -16 -11 -2 7 14 18 14 19 -2 7 -10 -8 -14 -20 -11 -29 4 -9 2 -14
-3 -10 -6 3 -16 -4 -24 -16 -11 -19 -11 -21 1 -12 8 6 7 2 -4 -7 -10 -10 -16
-22 -13 -27 3 -5 -2 -15 -12 -22 -15 -12 -16 -12 -7 1 6 9 2 7 -8 -4 -10 -10
-16 -25 -13 -33 3 -7 0 -12 -7 -10 -7 1 -11 -6 -11 -15 1 -10 -3 -15 -9 -11
-6 4 -8 0 -4 -11 5 -11 3 -15 -5 -10 -8 5 -9 2 -5 -9 3 -9 1 -19 -5 -23 -7 -5
-8 -2 -3 6 6 9 4 11 -4 6 -7 -5 -10 -14 -7 -22 3 -8 1 -14 -5 -14 -5 0 -9 -6
-8 -12 3 -21 -12 -48 -24 -41 -6 4 -8 -1 -5 -14 3 -11 -1 -28 -8 -38 -8 -10
-14 -14 -14 -9 0 6 6 16 13 24 10 12 9 12 -6 0 -13 -10 -16 -21 -12 -39 4 -14
3 -23 -1 -19 -10 10 -37 -29 -29 -42 3 -6 1 -10 -5 -10 -7 0 -9 -8 -5 -19 3
-11 0 -23 -6 -27 -8 -5 -10 -2 -5 7 4 8 0 5 -9 -6 -10 -12 -14 -29 -10 -43 4
-17 2 -22 -6 -16 -9 5 -10 2 -6 -9 4 -10 2 -16 -5 -14 -6 1 -13 -4 -16 -12 -3
-8 0 -11 7 -7 7 5 9 1 5 -8 -3 -9 -11 -16 -16 -16 -6 0 -8 -9 -5 -20 3 -13 1
-18 -6 -13 -6 4 -8 0 -5 -9 4 -8 2 -21 -4 -29 -8 -11 -9 -10 -4 4 4 12 2 16
-5 11 -7 -4 -9 -21 -6 -40 4 -24 2 -32 -5 -28 -7 5 -9 1 -5 -9 4 -10 2 -16 -6
-14 -8 1 -11 -9 -9 -31 1 -23 -1 -31 -9 -26 -8 5 -10 -1 -7 -19 3 -15 1 -24
-3 -21 -15 9 -31 -49 -24 -84 4 -21 2 -32 -3 -28 -15 9 -35 -50 -27 -83 4 -20
3 -31 -4 -31 -6 0 -11 -7 -11 -16 0 -8 5 -12 11 -9 6 4 9 0 7 -10 -2 -10 4
-20 12 -22 13 -4 13 -3 0 6 -10 7 3 8 45 5 47 -4 57 -3 45 6 -12 9 -5 10 32 5
54 -7 137 13 116 27 -8 6 9 7 44 3 59 -6 149 12 127 26 -6 4 10 5 37 2 39 -4
46 -2 34 7 -12 9 -8 10 19 6 38 -7 113 12 105 26 -4 5 9 7 29 3 40 -8 117 12
97 25 -7 4 9 6 36 3 36 -3 45 -2 34 6 -11 8 -6 10 25 8 27 -1 39 2 38 10 -2 7
4 10 12 7 8 -4 15 -1 15 6 0 8 10 10 34 6 37 -7 91 8 81 23 -3 6 9 7 31 4 28
-5 35 -3 29 7 -5 9 -2 10 12 6 22 -7 87 16 77 27 -4 4 10 6 32 4 26 -1 38 2
37 10 -2 8 4 10 14 6 10 -4 14 -2 9 5 -4 7 5 9 30 5 24 -4 35 -3 31 4 -4 6 5
15 19 22 35 16 44 13 14 -4 -30 -17 -21 -20 15 -3 14 6 25 15 25 21 0 5 11 6
25 3 29 -7 69 10 59 25 -3 6 4 7 21 3 28 -7 105 21 105 38 0 5 9 7 20 3 23 -7
63 12 54 27 -4 7 4 8 26 3 21 -5 30 -4 26 3 -3 5 1 13 10 16 8 3 12 2 9 -4 -3
-6 1 -7 9 -4 9 3 14 10 11 14 -3 5 5 6 17 2 14 -3 19 -1 14 6 -4 7 3 10 21 9
17 -1 27 3 26 10 -2 8 4 10 14 6 11 -4 14 -3 9 5 -5 8 1 10 22 6 20 -4 32 -1
42 13 12 15 12 16 0 6 -8 -7 -18 -13 -24 -13 -5 0 -1 6 10 14 11 9 29 12 43 9
18 -4 22 -3 16 7 -5 9 -2 10 13 6 14 -5 27 -1 39 11 10 10 27 17 39 15 11 -2
27 5 34 15 12 15 12 16 0 6 -8 -7 -18 -13 -24 -13 -5 0 -1 6 10 14 11 9 29 12
43 9 18 -4 22 -3 16 7 -5 9 -2 10 13 6 12 -4 23 -2 28 5 5 8 3 9 -6 4 -8 -5
-11 -4 -6 3 4 6 13 9 21 5 8 -3 15 0 15 7 0 6 8 9 18 6 10 -4 27 1 38 10 10 8
13 12 5 8 -9 -5 -12 -3 -7 4 4 7 18 9 33 6 17 -5 24 -3 20 3 -7 12 20 27 41
24 6 -1 12 3 12 9 0 18 35 11 48 -11 8 -12 19 -18 28 -15 8 3 14 1 14 -5 0 -6
7 -8 16 -5 8 3 12 2 9 -4 -8 -13 30 -31 52 -23 10 3 15 2 11 -2 -10 -11 29
-38 42 -30 6 3 10 1 10 -5 0 -7 7 -9 16 -6 10 4 13 2 8 -6 -5 -8 -2 -9 9 -5 9
3 19 1 23 -5 5 -7 2 -8 -6 -3 -9 6 -11 4 -5 -4 4 -7 15 -11 25 -8 9 2 22 -4
29 -14 6 -11 16 -19 22 -19 5 0 7 4 4 10 -3 6 1 7 9 4 9 -3 13 -11 9 -17 -4
-6 2 -8 15 -5 12 4 20 2 17 -2 -9 -14 34 -32 58 -24 12 3 19 3 15 -1 -12 -13
28 -36 48 -28 13 5 15 3 9 -7 -6 -10 -3 -12 13 -8 12 4 25 1 29 -4 4 -7 1 -8
-8 -4 -8 4 -5 0 6 -9 12 -10 29 -14 43 -10 15 4 21 2 18 -4 -9 -14 29 -32 50
-24 13 5 15 3 9 -7 -6 -10 -3 -12 13 -8 12 4 20 1 19 -4 -1 -6 4 -13 12 -16 8
-3 11 0 7 7 -5 7 -1 9 8 5 9 -3 13 -11 9 -16 -4 -7 4 -9 20 -6 17 3 24 1 20
-5 -4 -6 0 -8 9 -5 8 4 21 2 29 -4 11 -8 10 -9 -4 -4 -11 4 -16 2 -12 -5 4 -6
20 -7 37 -4 22 5 29 4 23 -5 -5 -8 -1 -11 11 -9 28 4 65 -11 58 -23 -5 -7 2
-9 20 -4 16 4 25 3 22 -2 -8 -13 43 -34 65 -27 11 4 19 2 19 -3 0 -14 48 -32
67 -25 12 5 14 3 8 -7 -6 -10 -1 -12 24 -7 18 4 30 3 27 -2 -9 -14 48 -33 77
-25 18 4 27 2 27 -6 0 -7 7 -10 15 -6 8 3 14 0 12 -7 -1 -8 10 -11 33 -9 27 2
32 0 20 -9 -11 -8 -4 -9 29 -5 25 2 39 1 32 -3 -23 -15 44 -34 91 -26 24 4 40
4 35 -1 -12 -12 52 -35 80 -27 20 4 24 3 18 -7 -6 -10 2 -12 41 -7 31 4 44 3
35 -2 -23 -15 62 -33 116 -25 36 5 44 4 38 -6 -6 -10 -1 -11 21 -6 18 4 24 3
16 -2 -23 -15 16 -24 78 -17 42 5 52 4 40 -5 -12 -9 -1 -10 45 -6 34 3 54 1
46 -3 -21 -13 83 -32 156 -29 49 2 60 5 55 17 -3 9 -1 12 6 7 7 -4 12 -1 12 9
0 10 -5 13 -11 9 -9 -5 -10 1 -5 21 8 30 -11 98 -24 90 -5 -3 -6 9 -4 27 6 38
-11 92 -26 83 -7 -4 -9 2 -4 19 3 15 2 26 -4 26 -5 0 -9 15 -8 33 0 20 -3 31
-11 30 -8 -2 -10 4 -6 14 4 11 3 14 -5 9 -8 -5 -10 2 -5 25 4 21 3 30 -4 26
-6 -4 -14 0 -17 9 -4 9 -2 13 5 8 7 -4 10 -1 7 7 -3 8 -10 13 -16 12 -5 -1 -8
7 -5 17 3 12 0 20 -7 20 -7 0 -10 7 -6 15 7 20 -14 66 -27 58 -5 -3 -6 3 -3
15 8 23 -10 66 -24 57 -4 -3 -6 5 -2 17 4 16 2 19 -8 13 -10 -6 -12 -4 -7 9 8
20 -15 60 -27 48 -4 -4 -5 5 -1 19 4 18 1 29 -12 39 -15 12 -16 12 -5 0 6 -8
12 -19 12 -24 0 -6 -7 -1 -15 11 -8 12 -12 29 -8 39 4 11 3 15 -4 11 -12 -8
-25 16 -27 52 -1 13 -11 31 -22 40 -11 9 -18 23 -16 32 1 9 -5 22 -15 30 -17
13 -17 13 -3 -6 14 -18 14 -19 -2 -7 -10 8 -14 20 -11 29 5 12 3 14 -6 8 -10
-5 -11 -2 -7 12 4 13 0 25 -11 34 -14 12 -16 12 -8 0 5 -9 4 -12 -3 -7 -6 4
-8 14 -5 23 4 10 2 14 -4 10 -6 -4 -10 1 -9 11 0 9 -5 16 -12 14 -8 -1 -11 2
-7 8 3 5 2 10 -4 10 -6 0 -8 6 -5 13 3 8 -3 20 -12 28 -15 12 -17 12 -9 0 5
-9 4 -12 -3 -7 -6 4 -9 13 -6 20 3 7 -3 19 -13 27 -17 13 -17 13 -3 -6 14 -18
14 -19 -2 -7 -10 8 -14 20 -11 29 4 11 2 14 -5 9 -7 -4 -10 -2 -6 7 3 8 -3 20
-12 28 -15 12 -17 12 -9 0 5 -10 4 -12 -4 -7 -6 4 -8 12 -5 18 4 6 -11 27 -32
47 -22 20 -31 29 -20 21 28 -21 -73 107 -107 136 -16 13 -25 24 -20 24 4 0 -7
9 -24 20 -18 11 -33 26 -33 34 0 8 -5 18 -12 22 -7 5 -8 3 -3 -7 5 -8 -5 -1
-23 16 -18 16 -32 35 -32 42 0 6 -5 15 -12 19 -7 5 -9 2 -4 -7 4 -8 0 -5 -8 5
-9 11 -16 24 -16 29 0 4 -4 5 -10 2 -5 -3 -10 -1 -10 5 0 6 -5 8 -12 4 -6 -4
-8 -3 -5 3 6 9 -27 44 -83 88 l-25 20 15 -21 c8 -11 0 -4 -19 15 -19 20 -28
27 -21 16 7 -11 -3 -2 -22 19 -19 22 -39 36 -46 32 -6 -3 -14 -1 -18 5 -5 8
-3 9 7 4 12 -8 12 -6 0 9 -8 9 -20 15 -28 12 -9 -4 -11 -1 -7 6 5 7 2 9 -9 5
-9 -3 -21 1 -29 11 -11 15 -11 16 2 7 9 -5 7 -2 -4 8 -10 10 -25 16 -32 13 -7
-3 -16 0 -20 6 -5 7 -2 8 7 4 8 -4 5 0 -6 8 -11 9 -25 14 -31 12 -7 -3 -18 3
-26 12 -12 16 -11 16 7 2 19 -14 19 -14 6 3 -9 11 -21 15 -34 11 -11 -3 -17
-2 -14 3 3 5 -4 15 -16 23 -21 12 -21 12 -7 -5 14 -17 14 -17 -7 -5 -12 8 -19
18 -16 23 3 5 -3 6 -14 3 -13 -4 -25 0 -34 11 -13 17 -13 17 6 3 19 -14 19
-14 6 3 -10 13 -22 16 -39 12 -14 -3 -21 -2 -18 4 9 14 -29 32 -50 24 -13 -5
-15 -3 -9 7 6 10 3 12 -13 8 -12 -4 -25 -1 -29 4 -4 7 -1 8 8 4 8 -4 5 0 -6 9
-11 9 -30 14 -42 12 -12 -2 -20 -1 -18 3 8 13 -46 30 -72 24 -17 -5 -24 -3
-20 3 4 6 -1 13 -11 16 -9 2 -26 8 -37 12 -13 4 -12 1 5 -9 30 -18 21 -21 -14
-5 -14 7 -23 16 -19 22 4 6 -10 8 -38 4 -24 -3 -38 -3 -30 0 30 12 -51 33
-102 27 -40 -6 -48 -4 -42 6 6 10 -1 12 -36 7 -25 -4 -36 -3 -24 2 17 7 17 8
-8 15 -15 3 -58 4 -95 1 -45 -3 -59 -2 -42 4 17 6 -26 9 -125 9 -99 0 -142 -3
-125 -9z"/>
<path d="M9626 7148 c5 -8 2 -9 -10 -5 -20 8 -60 -15 -48 -27 4 -4 -4 -5 -18
-1 -16 4 -32 0 -45 -10 -11 -9 -14 -13 -6 -9 9 5 12 3 7 -4 -4 -7 -18 -9 -33
-6 -17 5 -24 3 -20 -3 4 -6 0 -14 -9 -17 -8 -3 -12 -2 -9 4 3 6 1 10 -4 10 -6
0 -16 -9 -23 -19 -9 -14 -19 -18 -39 -14 -15 3 -30 0 -33 -6 -5 -7 -1 -9 11
-5 14 5 15 4 4 -4 -8 -6 -21 -8 -29 -4 -9 3 -13 1 -9 -5 5 -7 0 -9 -13 -6 -11
3 -20 0 -20 -6 0 -5 -6 -8 -14 -5 -8 3 -17 0 -22 -7 -5 -8 -3 -10 6 -4 8 5 11
4 6 -3 -4 -6 -13 -9 -21 -5 -8 3 -15 1 -15 -5 0 -5 -15 -9 -32 -8 -21 0 -32
-3 -31 -11 2 -8 -4 -10 -14 -6 -10 4 -14 2 -10 -4 4 -6 -3 -8 -20 -5 -17 3
-24 1 -19 -6 7 -12 -30 -27 -58 -23 -12 2 -16 -1 -11 -10 6 -9 1 -10 -19 -5
-29 7 -70 -9 -61 -24 4 -6 -7 -7 -26 -3 -22 4 -30 3 -25 -5 8 -13 -30 -27 -63
-23 -16 2 -21 -1 -16 -10 6 -9 1 -10 -19 -5 -29 7 -70 -9 -60 -25 4 -7 -7 -8
-31 -3 -25 4 -36 3 -32 -4 4 -5 0 -13 -9 -16 -10 -4 -13 -2 -8 6 5 8 2 9 -10
5 -10 -4 -21 -7 -24 -7 -4 0 0 -5 8 -10 11 -8 7 -9 -14 -4 -22 5 -27 4 -21 -6
6 -10 2 -11 -18 -6 -28 7 -80 -12 -71 -25 3 -5 -8 -6 -25 -3 -37 8 -110 -14
-90 -27 9 -6 1 -6 -20 -2 -27 5 -32 3 -26 -7 6 -10 2 -11 -18 -6 -28 7 -80
-12 -71 -26 3 -5 -12 -6 -33 -2 -26 4 -50 1 -73 -10 -24 -11 -27 -14 -10 -10
18 4 21 3 11 -4 -7 -5 -32 -7 -54 -4 -31 4 -38 2 -32 -8 6 -10 2 -11 -19 -6
-36 9 -75 -2 -55 -15 9 -6 4 -7 -15 -3 -21 5 -27 4 -22 -5 6 -9 -1 -11 -26 -6
-43 8 -128 -12 -107 -26 8 -5 -7 -6 -40 -2 -42 5 -52 3 -46 -6 6 -10 0 -12
-23 -6 -31 6 -115 -13 -107 -25 2 -4 -24 -6 -58 -6 -69 1 -128 -11 -109 -23 6
-4 -19 -6 -56 -4 -50 2 -62 0 -47 -7 15 -8 9 -9 -26 -5 -26 3 -60 3 -75 -1
-25 -7 -26 -8 -9 -15 12 -5 1 -6 -24 -2 -34 5 -42 3 -36 -6 5 -10 -10 -12 -66
-9 l-73 3 -2 -40 c-1 -22 1 -53 4 -70 4 -27 6 -28 13 -10 6 13 6 7 3 -17 -4
-26 -2 -38 6 -38 8 0 10 -15 5 -54 -7 -54 11 -178 24 -158 3 5 5 -76 5 -181
-1 -136 1 -167 6 -107 5 71 6 58 6 -75 0 -124 -1 -143 -6 -85 -5 51 -7 15 -6
-112 0 -102 -2 -181 -5 -176 -13 21 -30 -100 -23 -163 4 -40 3 -60 -3 -56 -15
9 -35 -69 -28 -106 5 -24 4 -28 -4 -17 -8 12 -11 8 -11 -17 0 -18 5 -33 11
-33 5 0 8 -4 5 -8 -8 -13 53 -45 74 -39 11 3 18 0 17 -7 -1 -6 6 -10 15 -10
10 1 15 -3 12 -8 -4 -6 2 -8 15 -3 13 4 21 2 21 -5 0 -7 7 -10 15 -6 8 3 14 0
12 -6 -1 -6 4 -13 12 -16 8 -3 11 0 7 7 -5 7 -1 9 8 5 9 -3 13 -11 9 -16 -4
-7 4 -9 20 -6 17 3 24 1 20 -5 -4 -6 0 -8 9 -5 8 4 21 2 29 -4 11 -8 10 -9 -4
-4 -12 4 -16 2 -11 -5 4 -6 19 -8 36 -5 16 3 27 2 24 -3 -7 -11 41 -32 59 -25
8 4 15 1 15 -6 0 -8 9 -10 25 -6 18 5 24 3 23 -6 -2 -8 6 -13 19 -12 12 0 19
-4 16 -9 -4 -6 6 -8 26 -4 18 4 30 3 27 -2 -9 -13 43 -32 71 -25 20 5 24 4 18
-6 -6 -10 0 -12 23 -8 17 2 29 1 26 -4 -9 -14 49 -30 91 -24 22 3 34 2 26 -1
-26 -11 49 -34 87 -27 27 5 33 4 27 -6 -6 -10 0 -12 23 -8 17 2 30 0 29 -5 -3
-16 55 -28 106 -23 26 3 45 1 42 -4 -10 -16 62 -31 114 -24 31 4 51 3 51 -3 0
-16 76 -34 122 -28 35 4 38 3 18 -5 -18 -7 -1 -8 60 -5 48 3 79 1 72 -4 -27
-17 78 -33 170 -25 65 5 88 4 88 -5 0 -9 22 -11 83 -7 48 2 63 2 37 -2 l-45
-7 72 -8 c39 -5 118 -6 175 -3 67 3 86 2 53 -3 -28 -5 104 -8 305 -8 200 0
333 3 305 8 -32 5 -11 6 57 3 119 -6 311 13 301 29 -4 7 28 8 96 3 102 -7 247
10 207 24 -11 3 26 6 80 6 114 -1 192 11 159 25 -12 5 -3 6 24 2 35 -5 42 -3
36 7 -6 10 2 12 40 7 48 -7 129 9 120 24 -3 4 21 6 52 3 44 -3 53 -2 38 6 -16
8 -13 9 15 5 19 -2 42 0 50 6 12 8 9 9 -10 4 -17 -4 -21 -3 -11 3 7 5 32 7 54
4 31 -4 38 -2 32 8 -6 9 0 10 24 5 34 -7 95 11 85 26 -3 5 14 6 38 3 46 -6
103 10 93 25 -3 6 9 7 31 4 29 -5 35 -3 29 7 -6 10 -2 11 18 6 26 -6 77 10 77
25 0 4 15 5 33 3 21 -4 39 0 52 11 20 16 20 16 -2 6 -32 -16 -42 -13 -13 3 14
8 39 12 60 9 27 -4 32 -2 20 6 -12 9 -7 11 20 9 22 -2 34 1 33 8 -1 8 6 10 19
6 13 -3 19 -1 15 5 -4 6 8 10 31 9 24 -1 36 3 35 11 -2 8 4 10 14 6 11 -4 14
-3 9 6 -6 9 0 10 20 5 18 -5 25 -3 20 4 -4 7 3 10 21 9 17 -1 27 3 26 10 -2 8
4 10 14 6 11 -4 14 -3 9 6 -6 9 0 11 26 6 26 -5 38 -2 49 11 12 15 12 16 0 9
-9 -5 -12 -4 -7 3 4 7 19 9 38 5 21 -4 29 -3 25 4 -4 6 0 14 9 17 9 4 13 2 8
-5 -4 -7 -1 -10 7 -7 8 3 13 10 12 16 -2 6 3 9 10 7 23 -9 40 11 33 39 -4 15
-11 24 -16 21 -6 -4 -7 7 -3 26 5 24 3 30 -7 24 -9 -5 -10 -2 -6 13 7 22 -12
72 -27 72 -5 0 -6 15 -3 36 8 41 -11 114 -24 93 -5 -7 -6 16 -3 52 3 50 2 61
-7 49 -9 -12 -11 -8 -6 18 7 39 -14 173 -26 166 -4 -3 -8 79 -8 181 0 136 3
184 11 179 9 -5 10 10 6 52 -3 33 -3 48 2 34 7 -24 8 -23 15 13 4 20 4 54 1
75 -4 29 -3 33 5 17 8 -15 9 -5 7 42 -2 34 0 60 4 58 14 -9 30 53 24 89 -5 22
-3 36 3 36 12 0 42 72 42 99 0 11 -8 27 -17 37 -15 15 -31 16 -131 10 -63 -4
-111 -3 -108 2 7 12 -131 33 -179 27 -31 -4 -36 -3 -20 5 15 7 4 9 -47 7 -37
-2 -65 0 -62 5 9 14 -78 30 -129 23 -38 -6 -48 -4 -42 5 6 10 1 11 -21 6 -19
-4 -24 -3 -15 3 20 13 -21 24 -60 16 -24 -6 -30 -4 -24 5 6 10 -2 12 -35 7
-26 -3 -38 -2 -30 3 21 13 -66 33 -109 25 -20 -4 -33 -3 -28 1 12 12 -53 34
-80 27 -20 -4 -24 -3 -18 7 6 10 1 12 -24 7 -18 -4 -30 -3 -27 2 9 13 -50 34
-80 28 -18 -3 -33 2 -46 15 -15 15 -27 18 -50 13 -23 -6 -29 -4 -23 5 6 10 1
12 -23 7 -17 -4 -34 -2 -37 3 -3 6 2 7 12 4 10 -3 5 2 -11 11 -18 11 -39 15
-58 11 -16 -3 -27 -2 -24 3 8 13 -39 30 -65 24 -17 -5 -20 -3 -14 7 6 10 3 12
-13 8 -14 -4 -20 -2 -15 5 4 7 0 8 -11 4 -9 -4 -14 -3 -11 2 8 13 -31 24 -57
15 -13 -3 -20 -3 -16 1 12 13 -30 37 -52 30 -12 -4 -20 -2 -20 5 0 7 -7 10
-15 6 -8 -3 -14 0 -12 6 1 6 -4 13 -12 16 -8 3 -11 0 -7 -7 5 -7 1 -9 -8 -5
-9 3 -13 11 -9 16 4 7 -4 9 -20 6 -17 -3 -24 -1 -20 5 4 6 0 8 -10 4 -10 -4
-16 -2 -14 6 1 7 -9 11 -25 10 -16 -1 -28 3 -28 9 0 5 -7 8 -15 5 -8 -4 -17
-1 -21 5 -5 7 -2 8 6 3 9 -6 11 -4 6 4 -5 7 -14 10 -22 7 -8 -3 -14 0 -14 5 0
6 -9 9 -20 6 -11 -3 -18 -1 -15 3 8 13 -31 31 -49 24 -9 -4 -16 -1 -16 6 0 7
-7 10 -15 7 -8 -4 -17 -1 -21 5 -5 7 -2 8 7 4 8 -4 5 0 -6 9 -11 9 -30 14 -41
12 -12 -2 -30 2 -40 10 -10 7 -13 13 -8 13 6 0 16 -6 24 -12 12 -11 12 -10 0
5 -8 12 -21 16 -35 13 -14 -4 -25 1 -33 15 -8 12 -19 18 -28 15 -8 -3 -14 -1
-14 5 0 6 -6 9 -13 6 -7 -3 -19 4 -26 15 -7 12 -20 18 -30 15 -10 -2 -23 3
-30 14 -6 11 -16 19 -22 19 -5 0 -7 -4 -4 -10 3 -6 -1 -7 -9 -4 -9 3 -13 10
-10 15 3 5 -9 9 -26 9 -21 0 -29 -4 -24 -12z m89 -497 c7 -13 7 -1930 0 -1942
-8 -12 -252 -12 -260 0 -3 5 -6 441 -8 969 l-2 960 132 1 c84 1 133 -2 136 -9
3 -6 4 -5 3 2 -2 9 -39 15 -132 18 l-129 6 127 2 c71 1 129 -2 133 -7z m-894
-178 c8 -9 10 -14 4 -11 -7 4 -10 -251 -10 -757 0 -420 3 -761 8 -758 4 2 8
340 9 751 l3 747 2 -744 c2 -410 -1 -749 -5 -753 -5 -5 -69 -10 -143 -11
l-134 -2 3 755 c2 695 3 756 19 768 11 7 58 13 127 14 l111 2 -120 6 -120 6
116 2 c99 2 119 -1 130 -15z m1756 -25 c6 -21 7 -21 14 -2 4 10 7 -324 6 -744
l-2 -763 -140 -2 -140 -2 0 766 0 767 128 1 c125 2 129 1 134 -21z m-2637
-199 c-12 -8 -8 -9 15 -7 l30 3 0 -585 0 -585 -5 580 -5 580 -2 -595 -2 -595
-122 -3 c-67 -1 -126 1 -131 6 -13 13 -16 1191 -3 1189 6 -1 9 4 8 11 -2 9 26
12 115 12 83 0 113 -3 102 -11z m3495 1 c-3 -5 1 -10 9 -10 14 0 16 -62 16
-586 0 -412 -3 -583 -11 -579 -6 4 -9 0 -7 -11 3 -18 -6 -19 -130 -19 l-133 0
-2 601 c-2 515 0 601 12 596 9 -3 12 -1 7 6 -5 9 25 12 119 12 82 0 124 -4
120 -10z"/>
<path d="M11692 4473 c-6 -2 -10 -9 -7 -14 4 -5 -1 -6 -9 -3 -9 4 -16 1 -16
-6 0 -8 -10 -9 -28 -5 -32 7 -86 -10 -78 -24 4 -5 -12 -7 -36 -4 -33 3 -39 2
-28 -6 12 -9 7 -11 -20 -9 -22 2 -34 -1 -33 -8 1 -8 -6 -10 -19 -6 -16 4 -19
2 -13 -8 6 -10 -1 -12 -35 -6 -49 8 -122 -11 -99 -25 8 -5 -9 -6 -41 -3 -43 4
-52 3 -40 -6 12 -9 10 -11 -12 -6 -28 6 -81 -11 -73 -24 3 -5 -2 -11 -11 -14
-10 -4 -13 -2 -8 6 4 7 3 8 -4 4 -7 -4 -9 -19 -5 -38 4 -20 2 -29 -4 -25 -14
9 -35 -41 -27 -65 4 -15 3 -18 -6 -13 -10 6 -12 1 -7 -23 5 -22 3 -31 -6 -29
-7 1 -12 -8 -11 -20 0 -12 -4 -19 -9 -16 -6 4 -7 -10 -3 -38 4 -24 4 -40 0
-36 -14 13 -35 -31 -28 -59 5 -21 4 -25 -6 -19 -10 6 -12 1 -8 -18 3 -15 1
-24 -3 -21 -14 8 -31 -48 -25 -79 4 -20 2 -26 -6 -21 -7 5 -9 0 -6 -14 4 -13
2 -20 -6 -19 -7 1 -10 -10 -8 -31 1 -23 -1 -31 -9 -26 -8 5 -10 -1 -6 -21 6
-33 -11 -77 -26 -68 -7 4 -8 -7 -4 -31 4 -25 2 -34 -5 -30 -7 5 -9 1 -5 -9 4
-10 2 -16 -6 -14 -8 1 -11 -11 -10 -36 1 -21 -1 -35 -6 -33 -5 3 -11 -2 -14
-12 -2 -9 -8 -26 -12 -37 -4 -14 -2 -13 10 5 12 18 14 19 10 5 -16 -47 -16
-51 5 -52 11 -1 18 2 16 6 -3 4 5 13 17 21 21 12 21 12 7 -5 -14 -18 -14 -18
7 -4 12 9 32 27 43 42 11 14 27 24 34 21 9 -3 17 3 21 16 4 12 9 19 12 16 9
-9 34 15 27 25 -3 5 1 6 9 4 7 -3 22 5 33 17 l19 23 -25 -20 -25 -20 18 22
c11 12 24 20 30 17 16 -6 221 201 213 214 -3 5 4 18 17 28 l22 19 -20 -25 -20
-25 23 19 c12 11 20 26 17 33 -2 8 -1 12 4 9 5 -3 15 2 22 11 10 12 10 14 2 9
-7 -4 -13 -5 -13 -1 0 3 12 10 26 15 16 7 24 16 21 24 -3 8 4 22 16 33 22 18
22 18 7 -3 -8 -11 0 -4 17 15 18 20 31 42 28 49 -3 7 -1 11 4 8 13 -9 34 21
25 36 -4 7 -4 10 1 6 11 -10 48 39 39 53 -4 7 -3 9 3 6 12 -8 39 20 30 29 -3
4 2 14 11 23 10 9 13 14 7 11 -6 -3 -3 3 8 12 10 10 15 23 11 29 -4 7 -3 9 3
6 14 -9 37 19 28 33 -3 5 -2 10 4 10 6 0 15 10 21 23 11 21 10 21 -4 3 -9 -11
-16 -15 -16 -8 0 6 9 18 21 26 12 8 19 18 16 23 -3 4 1 17 9 28 8 10 14 14 14
9 0 -6 -6 -16 -12 -24 -11 -12 -10 -12 5 0 13 10 16 21 12 39 -4 14 -3 23 0
19 11 -11 37 20 29 33 -4 8 -3 9 4 5 8 -4 12 0 12 11 0 23 -11 38 -30 46 -10
4 -8 6 8 6 14 1 22 -5 22 -16 0 -12 3 -14 11 -6 24 24 -19 43 -59 26z"/>
<path d="M7537 4434 c-4 -4 -7 -17 -6 -28 0 -20 1 -20 9 2 13 31 20 27 11 -6
-9 -29 9 -69 24 -54 4 4 5 -2 1 -14 -4 -14 -1 -26 11 -35 17 -13 17 -13 3 6
-14 18 -14 19 1 7 11 -8 15 -21 11 -34 -4 -16 -2 -19 8 -13 9 5 11 4 6 -4 -5
-7 0 -19 12 -29 10 -9 17 -22 15 -28 -2 -6 4 -17 14 -25 17 -13 17 -13 3 6
-14 19 -14 19 3 6 10 -8 16 -19 13 -26 -2 -6 5 -17 15 -24 11 -6 17 -16 13
-22 -6 -10 40 -84 60 -96 6 -4 4 2 -4 13 -14 18 -14 18 2 5 10 -7 15 -18 12
-23 -8 -13 39 -79 81 -114 18 -15 31 -32 29 -36 -7 -11 16 -39 26 -33 4 3 14
-3 21 -12 10 -12 10 -14 2 -9 -25 14 -12 -11 19 -40 27 -24 29 -25 13 -4 l-20
25 22 -19 c13 -10 20 -22 18 -27 -5 -8 1 -15 40 -45 11 -9 13 -13 5 -9 -8 4
-6 -1 4 -9 11 -9 23 -16 28 -16 4 0 14 -13 23 -29 8 -16 24 -32 35 -36 11 -4
18 -11 15 -16 -6 -8 9 -13 28 -10 5 1 6 -2 3 -7 -5 -8 30 -45 84 -87 l25 -20
-15 21 c-8 11 0 4 17 -15 18 -20 33 -32 33 -27 0 5 9 -3 21 -18 19 -24 48 -34
62 -20 7 8 -13 54 -24 54 -5 0 -7 17 -6 38 1 24 -2 36 -10 35 -8 -2 -10 4 -6
14 4 11 3 14 -6 9 -9 -6 -11 1 -5 29 4 24 3 36 -3 32 -14 -9 -33 36 -26 62 3
12 1 21 -6 21 -6 0 -10 14 -9 33 2 21 -1 31 -9 30 -7 -2 -10 4 -7 12 4 8 1 15
-5 15 -7 0 -9 9 -5 25 6 26 -13 88 -25 80 -4 -2 -5 10 -3 27 3 22 1 29 -7 24
-8 -6 -10 0 -6 17 4 14 2 28 -4 31 -7 5 -9 0 -5 -11 4 -14 4 -15 -4 -4 -5 7
-7 22 -4 34 4 14 2 18 -7 13 -9 -6 -11 1 -5 29 4 24 3 36 -3 32 -5 -3 -9 4 -9
16 1 12 -4 21 -10 20 -6 -1 -9 10 -6 29 4 23 2 29 -8 23 -10 -6 -11 -2 -6 18
4 19 1 32 -11 44 -10 10 -17 26 -15 35 5 25 -33 40 -83 32 -28 -4 -45 -2 -45
4 0 16 -55 34 -86 27 -23 -5 -26 -4 -14 5 12 9 4 10 -35 6 -30 -4 -45 -2 -36
3 19 13 -50 34 -83 25 -17 -4 -26 -2 -26 6 0 7 -8 10 -20 7 -11 -3 -18 0 -17
7 1 7 -11 10 -33 8 -27 -2 -32 0 -20 9 12 8 6 9 -22 7 -20 -2 -36 1 -35 6 2
12 -26 20 -36 10z"/>
<path d="M10703 4253 c-13 -2 -23 -9 -23 -15 0 -7 -20 -8 -60 -4 -64 7 -191
-11 -169 -24 6 -5 -37 -7 -97 -5 -75 3 -95 1 -64 -4 35 -6 22 -8 -60 -8 -128
0 -276 -14 -240 -23 14 -3 -192 -6 -457 -5 -265 0 -475 3 -465 8 9 4 -23 6
-72 4 -50 -2 -81 -1 -71 3 33 11 -49 22 -124 16 -50 -4 -58 -3 -31 4 25 6 5 8
-69 5 -58 -2 -99 0 -92 4 15 10 -81 31 -129 29 -34 -1 -35 -2 -34 -42 1 -55
14 -97 26 -90 6 4 8 -5 3 -24 -4 -21 -1 -40 10 -59 16 -27 16 -24 0 22 -4 14
-2 12 8 -5 10 -15 13 -37 9 -59 -3 -23 -2 -32 6 -27 7 4 10 -3 9 -21 -1 -17 3
-27 10 -26 7 2 10 -4 7 -12 -4 -8 -1 -15 5 -15 8 0 10 -11 6 -32 -4 -23 -1
-39 10 -53 16 -20 16 -20 6 2 -16 32 -13 42 4 13 7 -14 11 -37 8 -53 -6 -30
23 -117 39 -117 5 0 6 -9 3 -21 -7 -21 12 -82 24 -75 4 3 5 -12 3 -32 -2 -25
0 -33 6 -24 7 11 10 10 14 -5 3 -10 9 -27 13 -38 4 -14 2 -13 -10 5 -12 18
-14 19 -10 5 4 -11 10 -28 12 -37 3 -10 10 -15 15 -12 6 4 8 -5 3 -24 -7 -32
9 -77 25 -67 4 3 6 -12 4 -32 -4 -27 2 -49 18 -77 13 -21 26 -38 31 -38 4 1
16 -7 28 -19 11 -11 27 -18 35 -15 8 3 14 0 14 -5 0 -6 9 -9 20 -6 11 3 18 1
15 -3 -9 -14 35 -32 62 -25 13 3 22 2 19 -3 -8 -13 43 -34 65 -27 11 4 19 2
19 -5 0 -8 9 -10 28 -6 18 4 22 3 13 -3 -21 -14 53 -34 103 -28 22 3 35 3 27
0 -31 -13 52 -34 108 -27 42 5 52 4 46 -6 -6 -10 6 -12 56 -7 35 3 53 2 39 -2
-23 -7 -22 -8 15 -14 53 -9 249 -9 311 0 46 7 47 7 19 15 -18 4 -7 5 28 2 40
-4 57 -2 57 6 0 9 15 10 55 5 56 -7 130 9 120 25 -3 4 12 6 32 3 43 -5 97 12
88 27 -4 7 2 9 19 4 17 -4 26 -2 26 5 0 7 9 9 24 5 17 -4 30 0 44 14 12 12 29
18 39 16 10 -3 27 2 38 11 11 9 14 13 6 9 -9 -4 -12 -3 -8 4 4 5 16 8 27 5 11
-3 20 0 20 6 0 6 6 10 13 8 7 -1 11 6 9 18 -2 11 0 17 4 13 13 -14 46 75 40
110 -2 18 -1 30 4 27 15 -10 32 35 25 67 -5 19 -3 28 3 24 5 -3 12 2 15 12 2
9 8 26 12 37 4 13 1 12 -9 -5 -18 -30 -21 -21 -5 14 7 14 16 23 22 19 7 -4 8
7 4 31 -4 25 -2 34 5 30 7 -5 9 -1 5 9 -4 10 -2 16 6 14 8 -1 11 12 9 41 -2
30 1 41 9 37 6 -5 10 0 8 11 -1 11 1 32 6 47 6 22 10 26 17 15 7 -9 8 -1 4 25
-2 20 -1 35 3 32 14 -8 33 50 25 80 -5 22 -4 26 6 20 10 -6 12 -3 8 13 -4 13
-2 20 6 19 7 -1 10 11 8 33 -2 27 0 32 9 20 8 -12 10 -7 6 20 -3 21 1 46 9 60
16 29 19 19 3 -13 -10 -22 -10 -22 6 -2 11 14 14 30 10 53 -5 25 -3 32 6 26 9
-5 11 -1 7 14 -4 13 -2 20 6 19 7 -1 10 10 8 31 -1 21 2 31 8 27 6 -4 10 10
10 34 0 44 -5 46 -67 34z"/>
<path d="M7798 3530 c28 -12 29 -20 2 -13 -13 4 -27 -1 -36 -13 -9 -11 -12
-12 -8 -4 4 8 -13 -7 -37 -35 -24 -27 -43 -55 -43 -62 1 -7 -15 -27 -37 -43
-21 -17 -41 -40 -44 -51 -4 -10 -9 -17 -13 -15 -4 2 -16 -8 -26 -23 -19 -26
-19 -26 0 -11 13 10 12 8 -2 -6 -13 -12 -20 -25 -16 -30 4 -4 2 -4 -4 -1 -16
9 -38 -19 -28 -35 4 -7 4 -10 -1 -6 -9 8 -42 -31 -37 -44 1 -5 -5 -8 -13 -8
-15 0 -39 -36 -31 -48 2 -4 -13 -25 -35 -47 -22 -21 -37 -45 -35 -52 3 -7 0
-15 -6 -19 -7 -5 -8 -2 -3 6 5 9 4 11 -4 6 -7 -4 -10 -13 -8 -19 2 -7 -7 -20
-20 -31 -14 -10 -22 -25 -19 -33 3 -8 2 -11 -4 -8 -5 3 -14 -5 -21 -17 -12
-22 -11 -22 6 -8 17 14 17 14 5 -7 -8 -12 -18 -19 -24 -16 -5 4 -7 -1 -3 -10
3 -9 -1 -21 -11 -29 -16 -12 -16 -11 -2 7 14 19 14 19 -3 6 -11 -8 -16 -22
-14 -33 3 -10 1 -15 -5 -12 -5 3 -8 0 -7 -7 3 -20 -12 -50 -21 -44 -10 6 -22
-24 -15 -35 3 -5 0 -12 -6 -16 -8 -5 -9 -3 -4 6 5 9 4 11 -4 6 -7 -5 -9 -16
-5 -28 4 -13 2 -18 -4 -14 -6 4 -16 -4 -23 -16 -12 -22 -11 -22 6 -8 17 14 17
14 5 -7 -8 -12 -18 -19 -24 -16 -5 4 -7 -3 -4 -15 4 -12 1 -25 -4 -29 -7 -4
-8 -1 -4 8 4 8 0 5 -9 -6 -9 -12 -14 -29 -10 -42 3 -12 1 -25 -5 -28 -6 -4 -7
1 -4 12 5 13 1 11 -11 -5 -25 -34 -5 -52 59 -51 42 1 47 3 26 10 -18 6 -12 7
22 3 27 -3 103 -2 170 3 l123 8 -75 5 c-41 3 11 6 115 6 105 0 156 -3 115 -6
l-75 -5 120 -8 c66 -4 141 -6 165 -3 36 5 40 4 20 -4 -18 -7 1 -9 67 -7 51 2
88 0 82 -3 -20 -13 79 -33 126 -26 32 5 45 4 45 -5 0 -8 11 -9 33 -5 21 4 27
3 18 -3 -21 -14 63 -34 107 -26 20 4 32 3 28 -3 -9 -15 48 -34 77 -26 15 3 27
2 27 -3 0 -6 11 -15 25 -21 36 -17 45 -14 15 3 -30 17 -21 20 14 4 14 -7 23
-16 19 -22 -4 -6 7 -8 30 -4 24 4 41 1 54 -9 17 -14 17 -14 -4 -5 -33 17 -42
12 -10 -5 15 -8 37 -12 47 -9 12 4 20 2 20 -5 0 -6 6 -10 13 -8 21 4 58 -13
51 -24 -5 -7 2 -9 20 -4 17 4 25 3 22 -3 -10 -15 32 -33 57 -25 12 3 19 3 15
-1 -10 -11 29 -38 42 -30 6 3 10 1 10 -5 0 -7 7 -9 16 -6 8 3 12 2 9 -4 -8
-12 33 -33 51 -26 10 4 12 2 8 -6 -5 -8 -2 -9 9 -5 9 3 19 1 23 -5 5 -7 2 -8
-6 -3 -9 6 -11 4 -6 -4 5 -7 14 -10 22 -7 8 3 14 1 14 -5 0 -6 6 -9 14 -6 8 3
20 -2 28 -11 12 -16 11 -16 -7 -2 -19 14 -19 14 -6 -3 8 -10 21 -16 30 -15 9
2 23 -4 31 -12 8 -9 13 -11 10 -5 -3 6 3 3 12 -8 10 -10 22 -16 27 -13 5 3 15
-2 22 -12 13 -16 13 -16 -6 -2 -19 14 -19 14 -6 -3 8 -10 19 -16 25 -14 6 2
17 -4 26 -13 8 -9 13 -11 10 -5 -3 6 2 4 10 -5 9 -9 20 -15 26 -13 6 2 17 -4
25 -14 13 -16 12 -17 -3 -4 -10 7 -18 11 -18 9 0 -8 202 -163 211 -163 4 0 11
-4 16 -9 5 -5 2 -6 -7 -1 -8 4 7 -15 33 -42 39 -40 55 -50 78 -49 17 1 33 6
37 12 4 6 33 29 64 53 31 23 69 58 83 77 15 20 33 33 39 31 7 -3 18 3 24 14 7
10 18 16 26 13 7 -3 22 6 32 19 11 13 25 22 31 20 7 -3 23 6 36 19 13 13 29
22 35 20 5 -1 14 2 18 9 5 8 3 9 -6 4 -9 -5 -11 -4 -6 4 4 6 11 9 16 6 10 -6
70 21 70 31 0 3 -5 2 -12 -2 -7 -4 -8 -3 -4 4 4 6 13 9 21 5 8 -3 15 0 15 6 0
6 6 8 14 5 8 -3 20 3 27 14 8 13 19 17 32 14 13 -3 18 -1 14 5 -4 6 1 10 11 9
9 0 16 4 15 10 -1 8 6 10 19 6 12 -3 19 -1 15 4 -3 6 4 16 16 24 20 12 21 12
8 -4 -13 -16 -12 -16 12 -5 15 7 24 16 20 22 -3 5 3 7 14 3 11 -3 27 1 39 10
10 8 13 12 5 8 -9 -5 -12 -3 -7 4 4 7 18 9 33 6 20 -5 24 -4 18 6 -6 10 -4 12
8 7 21 -8 69 12 60 26 -3 5 6 7 23 3 17 -3 39 0 54 9 29 17 19 20 -13 4 -21
-10 -21 -9 -3 5 12 10 29 13 49 9 23 -5 28 -3 22 7 -5 9 -2 10 13 6 21 -7 72
11 72 26 0 5 11 6 24 2 28 -7 99 13 91 26 -2 4 17 5 43 3 37 -4 44 -2 32 7
-12 9 -9 10 13 5 37 -8 76 3 56 16 -9 6 -1 7 20 2 26 -5 32 -3 26 7 -6 10 2
11 39 6 50 -8 167 11 147 23 -7 4 37 7 96 5 59 -2 92 0 73 4 -19 4 96 7 255 7
160 0 270 -3 245 -7 -27 -4 2 -6 72 -5 64 1 111 -1 106 -4 -14 -9 90 -32 122
-28 30 5 36 27 15 54 -16 20 -16 19 -6 -2 6 -12 11 -28 11 -35 -1 -7 -7 2 -15
21 -8 18 -13 37 -10 41 7 11 -44 100 -61 107 -7 2 -10 12 -7 20 4 9 2 14 -3
10 -6 -3 -16 4 -24 16 -11 19 -11 21 1 12 9 -6 8 -3 -1 5 -9 9 -15 21 -13 27
2 6 -1 15 -8 19 -8 5 -9 3 -4 -6 5 -8 4 -11 -3 -6 -6 4 -9 13 -6 21 4 8 -7 27
-23 43 -16 16 -27 34 -25 40 1 5 -6 16 -16 24 -11 7 -19 15 -18 18 1 9 -31 50
-35 45 -3 -2 -11 6 -18 18 -13 21 -13 21 4 7 18 -15 18 -14 1 13 -10 15 -23
27 -28 27 -5 0 -7 3 -5 8 7 10 -19 32 -29 24 -4 -4 -4 -1 0 6 12 21 -207 297
-227 285 -7 -3 -9 -3 -5 2 4 4 0 14 -10 22 -9 8 -11 11 -3 7 9 -5 12 -3 7 4
-4 7 -14 12 -23 12 -9 0 -13 3 -10 7 9 9 -13 34 -24 27 -5 -3 -6 1 -4 8 3 8
-12 29 -32 48 l-38 35 35 -40 35 -40 -37 34 c-20 18 -34 39 -32 45 2 6 -18 34
-46 61 l-50 50 -41 -45 c-23 -25 -38 -38 -33 -30 4 8 -16 -7 -44 -34 -51 -49
-63 -64 -40 -50 7 4 8 3 4 -5 -4 -6 -11 -9 -16 -6 -9 6 -140 -91 -140 -102 0
-4 10 2 23 13 l22 19 -19 -22 c-10 -13 -23 -20 -28 -17 -12 7 -39 -16 -32 -27
3 -5 -1 -6 -9 -3 -8 3 -20 -3 -28 -13 -13 -17 -13 -17 6 -3 19 14 19 14 6 -2
-7 -10 -17 -15 -23 -12 -13 8 -39 -16 -31 -29 3 -6 1 -7 -5 -3 -7 4 -12 3 -12
-3 0 -6 -6 -8 -13 -5 -7 2 -24 -6 -38 -18 -14 -13 -29 -25 -34 -27 -6 -1 -9
-7 -8 -12 2 -4 -5 -5 -14 -2 -11 5 -14 3 -8 -6 5 -10 2 -11 -12 -7 -13 4 -25
0 -34 -11 -13 -17 -13 -17 6 -3 18 14 19 14 7 -2 -8 -9 -20 -14 -28 -11 -8 3
-14 0 -14 -6 0 -6 -6 -8 -14 -5 -8 3 -20 -3 -27 -14 -7 -11 -20 -17 -29 -15
-9 2 -23 -4 -31 -14 -13 -17 -13 -17 6 -3 19 14 19 14 6 -3 -9 -11 -21 -15
-34 -11 -14 4 -17 3 -12 -6 5 -9 2 -10 -13 -6 -14 5 -25 1 -35 -14 -8 -12 -20
-18 -30 -14 -19 7 -60 -14 -51 -27 3 -6 -5 -7 -22 -3 -20 5 -25 4 -19 -6 5 -9
2 -10 -13 -6 -12 4 -23 2 -28 -5 -5 -8 -3 -9 6 -4 8 5 11 4 6 -3 -4 -6 -13 -9
-21 -5 -8 3 -15 0 -15 -7 0 -7 -8 -9 -20 -5 -25 8 -62 -3 -55 -16 3 -5 -2 -6
-11 -2 -10 4 -15 2 -11 -3 3 -6 -5 -9 -22 -6 -15 2 -43 -3 -62 -12 -23 -11
-26 -14 -9 -10 19 4 21 3 10 -5 -8 -6 -25 -8 -37 -4 -14 3 -23 1 -23 -7 0 -8
-12 -10 -39 -5 -42 7 -130 -13 -110 -26 7 -4 -28 -5 -77 -3 -49 2 -76 0 -60
-4 16 -4 -92 -7 -240 -7 -148 0 -253 3 -234 7 20 4 -4 5 -54 3 -49 -1 -84 0
-77 4 21 13 -67 33 -114 25 -32 -4 -45 -3 -45 6 0 7 -8 9 -20 5 -14 -4 -20 -2
-18 7 2 9 -7 13 -29 12 -21 -1 -31 2 -26 9 4 7 -6 8 -31 4 -20 -3 -34 -2 -31
3 10 15 -35 32 -67 25 -23 -6 -29 -4 -23 6 6 9 3 11 -8 6 -10 -4 -16 -2 -14 6
1 7 -8 12 -20 11 -12 0 -19 4 -16 9 4 6 -5 8 -20 5 -17 -3 -24 -1 -20 5 4 6 0
8 -10 4 -9 -3 -19 -1 -23 5 -5 7 -2 8 6 3 9 -6 11 -4 5 4 -4 7 -17 10 -29 7
-15 -4 -26 1 -34 14 -7 11 -17 20 -23 20 -5 0 -7 -4 -4 -10 3 -6 -1 -7 -9 -4
-9 3 -13 11 -9 17 4 6 -2 8 -15 5 -12 -4 -25 -1 -29 4 -4 7 -1 8 8 4 8 -4 5 0
-5 8 -11 9 -28 14 -37 11 -10 -3 -21 0 -25 6 -5 8 -3 9 7 4 12 -8 12 -6 0 8
-14 18 -36 24 -26 7 3 -6 -1 -7 -9 -4 -9 3 -13 11 -9 17 4 6 0 8 -10 4 -10 -4
-16 -2 -14 6 1 7 -6 11 -15 11 -10 -1 -15 3 -12 8 4 6 1 9 -7 6 -7 -2 -20 3
-29 12 -8 9 -11 10 -5 1 9 -12 7 -12 -12 -1 -12 8 -19 18 -16 24 4 5 -1 7 -10
3 -9 -3 -21 1 -29 11 -12 16 -11 16 7 2 19 -14 19 -14 6 3 -8 10 -20 16 -28
13 -7 -3 -13 -1 -13 5 0 6 -5 7 -12 3 -6 -4 -8 -3 -4 4 3 6 -8 21 -26 33 -19
13 -29 17 -23 8 6 -8 3 -7 -6 3 -9 9 -19 14 -23 11 -3 -4 -6 -1 -6 6 0 7 -5 9
-12 5 -6 -4 -8 -3 -5 3 8 12 -40 56 -53 48 -5 -3 -12 0 -16 6 -5 8 -3 9 7 4
12 -8 12 -6 0 8 -16 20 -36 23 -25 5 5 -9 3 -9 -9 1 -9 7 -15 17 -12 21 6 10
-19 31 -42 34 -10 2 -28 18 -40 36 -13 18 -23 30 -23 26 0 -3 -8 2 -18 12 -11
9 -17 21 -14 25 2 5 -4 7 -14 5 -10 -2 -19 2 -19 7 -1 19 -16 35 -27 29 -6 -4
-8 -2 -5 3 8 13 -17 36 -28 25 -5 -4 -5 -2 -1 5 8 14 -42 63 -64 62 -9 0 -6
-4 8 -9z"/>
</g>
</svg>
